# xmcd
#
# Track frame offsets:
#	150
#	20578
#	40003
#	58646
#	81472
#	103052
#	123145
#	145352
#	166281
#	186215
#	208349
#	230021
#	251125
#	277615
#
# Disc length: 4030 seconds
#
# Revision: 1
# Processed by: cddbd v1.5.1PL0 Copyright (c) Steve Scherf et al.
# Submitted via: EasyCDDAExtractor 7.0.5.4
#
DISCID=c80fbc0e
DTITLE=The Jeff Healey Band - Feel This
DYEAR=1900
DGENRE=
TTITLE0=Cruel Little Number
TTITLE1=Leave The Light On
TTITLE2=Baby's Lookin' Hot
TTITLE3=Lost In Your Eyes
TTITLE4=House That Love Built
TTITLE5=Evil And Here To Stay
TTITLE6=My Kinda Lover
TTITLE7=It Could Get Blown Away
TTITLE8=You're Coming Home
TTITLE9=If You Can't Feel Anything Else
TTITLE10=Heart Of An Angel
TTITLE11=Live And Love
TTITLE12=Joined At The Heart
TTITLE13=Dreams Of Love
EXTD=
EXTT0=
EXTT1=
EXTT2=
EXTT3=
EXTT4=
EXTT5=
EXTT6=
EXTT7=
EXTT8=
EXTT9=
EXTT10=
EXTT11=
EXTT12=
EXTT13=
PLAYORDER=
